<svg width="48" height="48" viewBox="0 0 48 48" fill="none" xmlns="http://www.w3.org/2000/svg">
<rect width="48" height="48" rx="8" fill="black"/>
<path d="M22.9499 32.1667H24.9916V30.7084C25.9638 30.5334 26.7999 30.1542 27.4999 29.5709C28.1999 28.9875 28.5499 28.1223 28.5499 26.975C28.5499 26.1584 28.3166 25.4098 27.8499 24.7292C27.3833 24.0487 26.4499 23.4556 25.0499 22.95C23.8833 22.5612 23.0763 22.2209 22.6291 21.9292C22.1819 21.6375 21.9583 21.2389 21.9583 20.7334C21.9583 20.2278 22.1381 19.8292 22.4978 19.5375C22.8576 19.2459 23.3777 19.1 24.0583 19.1C24.6805 19.1 25.1666 19.2507 25.5166 19.5521C25.8666 19.8535 26.1194 20.2278 26.2749 20.675L28.1416 19.9167C27.9277 19.2362 27.5339 18.6431 26.9603 18.1375C26.3867 17.632 25.7499 17.35 25.0499 17.2917V15.8334H23.0083V17.2917C22.036 17.5056 21.2777 17.9334 20.7333 18.575C20.1888 19.2167 19.9166 19.9362 19.9166 20.7334C19.9166 21.6473 20.1839 22.3862 20.7187 22.95C21.2534 23.5139 22.0944 24 23.2416 24.4084C24.4666 24.8556 25.3173 25.2542 25.7937 25.6042C26.2701 25.9542 26.5083 26.4112 26.5083 26.975C26.5083 27.6167 26.2798 28.0882 25.8228 28.3896C25.3659 28.691 24.8166 28.8417 24.1749 28.8417C23.5333 28.8417 22.9645 28.6424 22.4687 28.2438C21.9728 27.8452 21.6083 27.2473 21.3749 26.45L19.4499 27.2084C19.7221 28.1417 20.1451 28.8952 20.7187 29.4688C21.2923 30.0424 22.036 30.4362 22.9499 30.65V32.1667ZM23.9999 35.6667C22.386 35.6667 20.8694 35.3605 19.4499 34.748C18.0305 34.1355 16.7958 33.3042 15.7458 32.2542C14.6958 31.2042 13.8645 29.9695 13.252 28.55C12.6395 27.1306 12.3333 25.6139 12.3333 24C12.3333 22.3862 12.6395 20.8695 13.252 19.45C13.8645 18.0306 14.6958 16.7959 15.7458 15.7459C16.7958 14.6959 18.0305 13.8646 19.4499 13.2521C20.8694 12.6396 22.386 12.3334 23.9999 12.3334C25.6138 12.3334 27.1305 12.6396 28.5499 13.2521C29.9694 13.8646 31.2041 14.6959 32.2541 15.7459C33.3041 16.7959 34.1353 18.0306 34.7478 19.45C35.3603 20.8695 35.6666 22.3862 35.6666 24C35.6666 25.6139 35.3603 27.1306 34.7478 28.55C34.1353 29.9695 33.3041 31.2042 32.2541 32.2542C31.2041 33.3042 29.9694 34.1355 28.5499 34.748C27.1305 35.3605 25.6138 35.6667 23.9999 35.6667ZM23.9999 33.3334C26.6055 33.3334 28.8124 32.4292 30.6208 30.6209C32.4291 28.8125 33.3333 26.6056 33.3333 24C33.3333 21.3945 32.4291 19.1875 30.6208 17.3792C28.8124 15.5709 26.6055 14.6667 23.9999 14.6667C21.3944 14.6667 19.1874 15.5709 17.3791 17.3792C15.5708 19.1875 14.6666 21.3945 14.6666 24C14.6666 26.6056 15.5708 28.8125 17.3791 30.6209C19.1874 32.4292 21.3944 33.3334 23.9999 33.3334Z" fill="#E8EAED"/>
</svg>
