<svg width="48" height="48" viewBox="0 0 48 48" fill="none" xmlns="http://www.w3.org/2000/svg">
<rect width="48" height="48" rx="8" fill="#FFBD23"/>
<path d="M22.8625 35.6083C19.8681 35.3167 17.3695 34.0625 15.3667 31.8458C13.3639 29.6292 12.3625 27.0139 12.3625 24C12.3625 20.9861 13.3639 18.3708 15.3667 16.1542C17.3695 13.9375 19.8681 12.6833 22.8625 12.3917V15.8917C20.8403 16.1639 19.1681 17.0681 17.8459 18.6042C16.5237 20.1403 15.8625 21.9389 15.8625 24C15.8625 26.0611 16.5237 27.8597 17.8459 29.3958C19.1681 30.9319 20.8403 31.8361 22.8625 32.1083V35.6083ZM25.1959 35.6083V32.1083C27.0237 31.875 28.5695 31.1167 29.8334 29.8333C31.0973 28.55 31.8653 26.9944 32.1376 25.1667H35.6376C35.3653 27.9472 34.2521 30.3146 32.298 32.2687C30.3438 34.2229 27.9764 35.3361 25.1959 35.6083ZM32.1376 22.8333C31.8653 21.0056 31.0973 19.45 29.8334 18.1667C28.5695 16.8833 27.0237 16.125 25.1959 15.8917V12.3917C27.9764 12.6639 30.3438 13.7771 32.298 15.7312C34.2521 17.6854 35.3653 20.0528 35.6376 22.8333H32.1376Z" fill="white"/>
</svg>
