<svg width="48" height="48" viewBox="0 0 48 48" fill="none" xmlns="http://www.w3.org/2000/svg">
<rect width="48" height="48" rx="8" fill="#409749"/>
<path d="M24 36.8333C21.8222 36.8333 19.8194 36.3375 17.9916 35.3458C16.1638 34.3542 14.6666 33.0319 13.5 31.3792V34.5H11.1666V27.5H18.1666V29.8333H15.2791C16.2125 31.2333 17.4423 32.3611 18.9687 33.2167C20.4951 34.0722 22.1722 34.5 24 34.5C25.4583 34.5 26.8243 34.2229 28.0979 33.6687C29.3715 33.1146 30.4798 32.366 31.4229 31.4229C32.3659 30.4799 33.1145 29.3715 33.6687 28.0979C34.2229 26.8243 34.5 25.4583 34.5 24H36.8333C36.8333 25.7694 36.4979 27.4319 35.827 28.9875C35.1562 30.543 34.2375 31.9042 33.0708 33.0708C31.9041 34.2375 30.543 35.1562 28.9875 35.8271C27.4319 36.4979 25.7694 36.8333 24 36.8333ZM22.95 32.1667V30.65C22.0361 30.4361 21.2923 30.0424 20.7187 29.4687C20.1451 28.8951 19.7222 28.1417 19.45 27.2083L21.375 26.45C21.6083 27.2472 21.9729 27.8451 22.4687 28.2437C22.9645 28.6424 23.5333 28.8417 24.175 28.8417C24.8166 28.8417 25.3659 28.691 25.8229 28.3896C26.2798 28.0882 26.5083 27.6167 26.5083 26.975C26.5083 26.4111 26.2701 25.9542 25.7937 25.6042C25.3173 25.2542 24.4666 24.8555 23.2416 24.4083C22.0944 24 21.2534 23.5139 20.7187 22.95C20.184 22.3861 19.9166 21.6472 19.9166 20.7333C19.9166 19.9361 20.1937 19.2118 20.7479 18.5604C21.302 17.909 22.0555 17.4861 23.0083 17.2917V15.8333H25.05V17.2917C25.75 17.35 26.3868 17.6319 26.9604 18.1375C27.534 18.643 27.9277 19.2361 28.1416 19.9167L26.275 20.675C26.1194 20.2278 25.8666 19.8535 25.5166 19.5521C25.1666 19.2507 24.6805 19.1 24.0583 19.1C23.3777 19.1 22.8576 19.2458 22.4979 19.5375C22.1382 19.8292 21.9583 20.2278 21.9583 20.7333C21.9583 21.2389 22.1819 21.6375 22.6291 21.9292C23.0763 22.2208 23.8833 22.5611 25.05 22.95C26.45 23.4555 27.3833 24.0486 27.85 24.7292C28.3166 25.4097 28.55 26.1583 28.55 26.975C28.55 27.5389 28.4527 28.0347 28.2583 28.4625C28.0638 28.8903 27.8062 29.2549 27.4854 29.5562C27.1645 29.8576 26.7902 30.1007 26.3625 30.2854C25.9347 30.4701 25.4777 30.6111 24.9916 30.7083V32.1667H22.95ZM11.1666 24C11.1666 22.2305 11.502 20.568 12.1729 19.0125C12.8437 17.4569 13.7625 16.0958 14.9291 14.9292C16.0958 13.7625 17.4569 12.8437 19.0125 12.1729C20.568 11.5021 22.2305 11.1667 24 11.1667C26.1777 11.1667 28.1805 11.6625 30.0083 12.6542C31.8361 13.6458 33.3333 14.968 34.5 16.6208V13.5H36.8333V20.5H29.8333V18.1667H32.7208C31.7875 16.7667 30.5576 15.6389 29.0312 14.7833C27.5048 13.9278 25.8277 13.5 24 13.5C22.5416 13.5 21.1757 13.7771 19.902 14.3312C18.6284 14.8854 17.5201 15.634 16.577 16.5771C15.634 17.5201 14.8854 18.6285 14.3312 19.9021C13.777 21.1757 13.5 22.5417 13.5 24H11.1666Z" fill="#E8EAED"/>
</svg>
