<svg width="48" height="48" viewBox="0 0 48 48" fill="none" xmlns="http://www.w3.org/2000/svg">
<rect width="48" height="48" rx="8" fill="#930C0C"/>
<path d="M24 21.6666L22.3666 20.0333L24.2041 18.1666H19.3333V15.8333H24.2041L22.3375 13.9666L24 12.3333L28.6666 17L24 21.6666ZM18.1666 35.6666C17.525 35.6666 16.9757 35.4382 16.5187 34.9812C16.0618 34.5243 15.8333 33.975 15.8333 33.3333C15.8333 32.6916 16.0618 32.1423 16.5187 31.6854C16.9757 31.2285 17.525 31 18.1666 31C18.8083 31 19.3576 31.2285 19.8145 31.6854C20.2715 32.1423 20.5 32.6916 20.5 33.3333C20.5 33.975 20.2715 34.5243 19.8145 34.9812C19.3576 35.4382 18.8083 35.6666 18.1666 35.6666ZM29.8333 35.6666C29.1916 35.6666 28.6423 35.4382 28.1854 34.9812C27.7284 34.5243 27.5 33.975 27.5 33.3333C27.5 32.6916 27.7284 32.1423 28.1854 31.6854C28.6423 31.2285 29.1916 31 29.8333 31C30.475 31 31.0243 31.2285 31.4812 31.6854C31.9382 32.1423 32.1666 32.6916 32.1666 33.3333C32.1666 33.975 31.9382 34.5243 31.4812 34.9812C31.0243 35.4382 30.475 35.6666 29.8333 35.6666ZM11.1666 14.6666V12.3333H14.9875L19.9458 22.8333H28.1125L32.6625 14.6666H35.3166L30.1833 23.9416C29.9694 24.3305 29.6826 24.6319 29.3229 24.8458C28.9632 25.0597 28.5694 25.1666 28.1416 25.1666H19.45L18.1666 27.5H32.1666V29.8333H18.1666C17.2916 29.8333 16.6257 29.4541 16.1687 28.6958C15.7118 27.9375 15.6972 27.1694 16.125 26.3916L17.7 23.5333L13.5 14.6666H11.1666Z" fill="white"/>
</svg>
