<svg width="48" height="48" viewBox="0 0 48 48" fill="none" xmlns="http://www.w3.org/2000/svg">
<rect width="48" height="48" rx="8" fill="#363CE9"/>
<path d="M28.6667 22.8333C28.9973 22.8333 29.2743 22.7215 29.498 22.4979C29.7216 22.2743 29.8334 21.9972 29.8334 21.6667C29.8334 21.3361 29.7216 21.059 29.498 20.8354C29.2743 20.6118 28.9973 20.5 28.6667 20.5C28.3362 20.5 28.0591 20.6118 27.8355 20.8354C27.6118 21.059 27.5 21.3361 27.5 21.6667C27.5 21.9972 27.6118 22.2743 27.8355 22.4979C28.0591 22.7215 28.3362 22.8333 28.6667 22.8333ZM19.3334 20.5H25.1667V18.1667H19.3334V20.5ZM15.25 34.5C14.5889 32.2833 13.9375 30.0715 13.2959 27.8646C12.6542 25.6576 12.3334 23.3972 12.3334 21.0833C12.3334 19.2945 12.9556 17.7778 14.2 16.5333C15.4445 15.2889 16.9612 14.6667 18.75 14.6667H24.5834C25.1473 13.9278 25.8327 13.3542 26.6396 12.9458C27.4466 12.5375 28.3167 12.3333 29.25 12.3333C29.7362 12.3333 30.1493 12.5035 30.4896 12.8438C30.8299 13.184 31 13.5972 31 14.0833C31 14.2 30.9855 14.3167 30.9563 14.4333C30.9271 14.55 30.8931 14.657 30.8542 14.7542C30.7764 14.9681 30.7035 15.1868 30.6355 15.4104C30.5674 15.634 30.5139 15.8625 30.475 16.0958L33.1292 18.75H35.6667V26.8875L32.3709 27.9667L30.4167 34.5H24V32.1667H21.6667V34.5H15.25ZM17 32.1667H19.3334V29.8333H26.3334V32.1667H28.6667L30.475 26.1583L33.3334 25.1958V21.0833H32.1667L28.0834 17C28.0834 16.6111 28.1077 16.2368 28.1563 15.8771C28.2049 15.5174 28.2778 15.1528 28.375 14.7833C27.8112 14.9389 27.3153 15.2063 26.8875 15.5854C26.4598 15.9646 26.1487 16.4361 25.9542 17H18.75C17.6223 17 16.6598 17.3986 15.8625 18.1958C15.0653 18.9931 14.6667 19.9556 14.6667 21.0833C14.6667 22.9889 14.9292 24.8507 15.4542 26.6688C15.9792 28.4868 16.4945 30.3195 17 32.1667Z" fill="#E8EAED"/>
</svg>
